#!OML:ASF X:\für Bonn\!DataBase\2005_08_10_Bjorn_Final\c3d\bjorn.ASF
:FULLY-SPECIFIED
:DEGREES
203
root 10.4135 7.82994 0.176624 -264.537 86.2278 -253.242
lowerback 46.9174 -4.50627 8.97866
upperback 22.4205 3.08586 2.90431
thorax 5.28306 4.06626 -1.8079
lowerneck -7.4021 -8.89288 4.35669
upperneck 8.67487 -12.1452 -1.72805
head 3.74951 -5.90156 -1.95422
rclavicle 5.725e-014 -2.22639e-014
rhumerus 22.9689 -16.7003 -74.3813
rradius 20.9672
rwrist 13.8926
rhand -50.1025 49.6647
rfingers 7.12502
rthumb -22.6874 20.9783
lclavicle 5.725e-014 -2.22639e-014
lhumerus -7.04755 -43.1747 78.0458
lradius 40.3151
lwrist -7.67782
lhand -22.6259 -11.9635
lfingers 7.12502
lthumb 3.80433 17.9823
rfemur -171.029 68.0257 74.7318
rtibia 207.484
rfoot -122.442 94.2689
rtoes -14.6899
lfemur -101.966 72.0648 -36.3102
ltibia 153.722
lfoot -35.9347 -28.0987
ltoes -24.721
204
root 10.4143 7.84854 0.172241 -265.359 86.3324 -254.129
lowerback 46.9986 -4.48357 8.95317
upperback 22.4047 3.10784 2.86648
thorax 5.25425 4.07435 -1.84428
lowerneck -7.60759 -8.88987 4.28268
upperneck 8.72995 -12.148 -1.70054
head 3.81566 -5.90309 -1.95011
rclavicle -2.8625e-014 -1.59028e-015
rhumerus 23.1144 -16.7294 -74.4738
rradius 20.8835
rwrist 13.9764
rhand -49.8756 48.8993
rfingers 7.12502
rthumb -22.4697 20.1865
lclavicle -2.8625e-014 -1.59028e-015
lhumerus -6.8431 -42.9379 77.8613
lradius 40.4133
lwrist -7.6698
lhand -22.7146 -11.9968
lfingers 7.12502
lthumb 3.71874 17.9505
rfemur -171.133 68.0039 75.0505
rtibia 207.531
rfoot -116.045 94.5015
rtoes -15.0661
lfemur -101.549 71.6036 -35.8817
ltibia 153.621
lfoot -35.7388 -27.9532
ltoes -24.8078
205
root 10.414 7.8713 0.168992 -266.296 86.4372 -255.147
lowerback 47.085 -4.45563 8.9355
upperback 22.3937 3.14036 2.81435
thorax 5.23244 4.09085 -1.90211
lowerneck -7.83317 -8.89156 4.21811
upperneck 8.78627 -12.1638 -1.6263
head 3.88852 -5.90851 -1.93445
rclavicle 3.18055e-014 1.59028e-014
rhumerus 23.2353 -16.7138 -74.5442
rradius 20.8718
rwrist 13.9355
rhand -49.6246 48.114
rfingers 7.12502
rthumb -22.2287 19.3722
lclavicle 3.18055e-014 1.59028e-014
lhumerus -6.55441 -42.7287 77.6131
lradius 40.4937
lwrist -7.75809
lhand -22.8823 -12.0156
lfingers 7.12502
lthumb 3.55678 17.9345
rfemur -170.94 68.0207 75.7557
rtibia 207.579
rfoot -108.914 94.8499
rtoes -15.6419
lfemur -101.126 71.035 -35.4428
ltibia 153.5
lfoot -35.3947 -27.9069
ltoes -24.5577
206
root 10.4147 7.89696 0.165978 -267.653 86.5586 -256.615
lowerback 47.1563 -4.39714 8.90725
upperback 22.355 3.19418 2.78221
thorax 5.18036 4.10894 -1.94321
lowerneck -7.99085 -8.88696 4.14848
upperneck 8.84463 -12.1639 -1.57391
head 3.94839 -5.90693 -1.91984
rclavicle -6.04305e-014 4.77083e-015
rhumerus 23.2969 -16.6757 -74.5781
rradius 20.8398
rwrist 13.9118
rhand -49.4173 47.2783
rfingers 7.12502
rthumb -22.0297 18.513
lclavicle -6.04305e-014 4.77083e-015
lhumerus -6.36739 -42.5167 77.4665
lradius 40.5831
lwrist -7.78537
lhand -23.135 -12.0473
lfingers 7.12502
lthumb 3.31275 17.9067
rfemur -170.761 68.0582 76.5306
rtibia 207.65
rfoot -102.705 95.1793
rtoes -15.9758
lfemur -100.786 70.5334 -35.0913
ltibia 153.367
lfoot -35.2251 -27.688
ltoes -24.6436
207
root 10.4144 7.9264 0.162737 -268.95 86.6856 -258.04
lowerback 47.2081 -4.35871 8.89495
upperback 22.3335 3.22967 2.72846
thorax 5.15246 4.12412 -2.00762
lowerneck -8.1427 -8.87796 4.10524
upperneck 8.86337 -12.1616 -1.51991
head 3.9916 -5.90457 -1.90656
rclavicle -3.18055e-014 2.38542e-014
rhumerus 23.4601 -16.799 -74.7571
rradius 20.7688
rwrist 14.0633
rhand -49.1265 46.527
rfingers 7.12502
rthumb -21.7505 17.729
lclavicle -3.18055e-014 2.38542e-014
lhumerus -6.08429 -42.2503 77.296
lradius 40.6111
lwrist -7.78162
lhand -23.4127 -12.0128
lfingers 7.12502
lthumb 3.04455 17.9452
rfemur -9.46525 -68.1042 -102.602
rtibia 152.271
rfoot -97.2288 84.3601
rtoes -16.4997
lfemur -100.411 69.8432 -34.6695
ltibia 153.215
lfoot -34.9086 -27.5259
ltoes -24.587
208
root 10.4137 7.96174 0.159096 -270.244 86.8102 -259.46
lowerback 47.3 -4.31386 8.89497
upperback 22.2948 3.28425 2.68939
thorax 5.10053 4.1471 -2.0685
lowerneck -8.2924 -8.88622 4.06485
upperneck 8.8841 -12.1815 -1.47359
head 4.03373 -5.91326 -1.89714
rclavicle -8.90555e-014 -5.40694e-014
rhumerus 23.532 -16.8147 -74.8139
rradius 20.7795
rwrist 14.0256
rhand -48.8122 45.6035
rfingers 7.12502
rthumb -21.4487 16.7709
lclavicle -8.90555e-014 -5.40694e-014
lhumerus -5.83206 -42.0552 77.12
lradius 40.7308
lwrist -7.6251
lhand -23.5697 -12.0189
lfingers 7.12502
lthumb 2.89292 17.9412
rfemur -10.1232 -68.142 -101.155
rtibia 152.158
rfoot -90.9092 83.7973
rtoes -17.1869
lfemur -99.8995 68.9775 -34.1735
ltibia 153.02
lfoot -34.6149 -27.2346
ltoes -24.7982
209
root 10.4136 7.99983 0.15539 -271.829 86.9524 -261.173
lowerback 47.3904 -4.27239 8.90507
upperback 22.2454 3.33529 2.6403
thorax 5.03812 4.16838 -2.14443
lowerneck -8.36991 -8.89161 4.02942
upperneck 8.87318 -12.1961 -1.40847
head 4.05145 -5.91913 -1.87589
rclavicle -3.49861e-014 2.70347e-014
rhumerus 23.5734 -16.7524 -74.827
rradius 20.7793
rwrist 13.9379
rhand -48.4958 44.5976
rfingers 7.12502
rthumb -21.1447 15.7307
lclavicle -3.49861e-014 2.70347e-014
lhumerus -5.63698 -41.82 76.9825
lradius 40.8732
lwrist -7.49186
lhand -23.6592 -11.9675
lfingers 7.12502
lthumb 2.80646 17.9938
rfemur -10.8822 -68.1606 -99.5666
rtibia 152.026
rfoot -85.9149 83.19
rtoes -17.8055
lfemur -99.3883 68.2589 -33.6535
ltibia 152.809
lfoot -34.2757 -27.1166
ltoes -24.6368
210
root 10.4122 8.04303 0.151917 -273.089 87.0989 -262.624
lowerback 47.4346 -4.22291 8.90965
upperback 22.1778 3.38084 2.60827
thorax 4.95959 4.17992 -2.20036
lowerneck -8.41234 -8.89271 3.9807
upperneck 8.85486 -12.1999 -1.35488
head 4.06002 -5.92084 -1.85302
rclavicle -5.725e-014 -2.06736e-014
rhumerus 23.6238 -16.7078 -74.8657
rradius 20.7683
rwrist 13.8432
rhand -48.1186 43.7181
rfingers 7.12502
rthumb -20.7824 14.811
lclavicle -5.725e-014 -2.06736e-014
lhumerus -5.43952 -41.5411 76.8965
lradius 40.9556
lwrist -7.3697
lhand -23.6943 -11.9363
lfingers 7.12502
lthumb 2.77264 18.0255
rfemur -11.8166 -68.2358 -97.6904
rtibia 151.871
rfoot -81.1293 82.482
rtoes -18.5798
lfemur -98.9419 67.1175 -33.1908
ltibia 152.563
lfoot -33.852 -26.7761
ltoes -24.6794
211
root 10.411 8.08893 0.149184 -274.872 87.225 -264.582
lowerback 47.4905 -4.15625 8.88256
upperback 22.1263 3.43742 2.56253
thorax 4.8967 4.19786 -2.25886
lowerneck -8.41682 -8.88354 4.01454
upperneck 8.76784 -12.1957 -1.33286
head 4.02917 -5.91981 -1.84746
rclavicle 6.36111e-015 9.54166e-015
rhumerus 23.6507 -16.6432 -74.9
rradius 20.7897
rwrist 13.6928
rhand -47.7052 42.7622
rfingers 7.12502
rthumb -20.3851 13.8122
lclavicle 6.36111e-015 9.54166e-015
lhumerus -5.21741 -41.2696 76.7708
lradius 41.0426
lwrist -7.27055
lhand -23.6598 -11.9104
lfingers 7.12502
lthumb 2.80592 18.0509
rfemur -13.0637 -68.2811 -95.4777
rtibia 151.691
rfoot -76.26 81.971
rtoes -18.8686
lfemur -98.4391 66.1258 -32.7148
ltibia 152.295
lfoot -33.5512 -26.4392
ltoes -24.7852
212
root 10.4097 8.13904 0.146033 -276.561 87.3577 -266.486
lowerback 47.535 -4.07792 8.86482
upperback 22.0343 3.50234 2.54292
thorax 4.7889 4.21112 -2.29983
lowerneck -8.34028 -8.89844 3.97484
upperneck 8.69395 -12.2121 -1.28127
head 3.99318 -5.92918 -1.81674
rclavicle -9.54166e-015 -3.18055e-015
rhumerus 23.5952 -16.5537 -74.8538
rradius 20.8013
rwrist 13.4842
rhand -47.2333 41.9085
rfingers 7.12502
rthumb -19.9315 12.9107
lclavicle -9.54166e-015 -3.18055e-015
lhumerus -5.08345 -41.0484 76.731
lradius 41.1624
lwrist -7.08232
lhand -23.6563 -11.9095
lfingers 7.12502
lthumb 2.80932 18.0517
rfemur -14.3838 -68.3321 -93.1362
rtibia 151.474
rfoot -71.3002 81.6553
rtoes -18.7967
lfemur -97.9625 64.9355 -32.2794
ltibia 151.988
lfoot -33.1437 -26.1145
ltoes -24.7758
213
root 10.4082 8.19255 0.142621 -278.175 87.4963 -268.313
lowerback 47.5339 -4.01806 8.85108
upperback 21.9805 3.54542 2.50848
thorax 4.73123 4.22072 -2.34896
lowerneck -8.26794 -8.89098 4.026
upperneck 8.56973 -12.2037 -1.30044
head 3.93017 -5.92867 -1.82017
rclavicle -5.40694e-014 -2.06736e-014
rhumerus 23.5641 -16.3995 -74.8253
rradius 20.8386
rwrist 13.2059
rhand -46.7436 41.0766
rfingers 7.12502
rthumb -19.4607 12.0304
lclavicle -5.40694e-014 -2.06736e-014
lhumerus -4.891 -40.7613 76.6418
lradius 41.2791
lwrist -6.91883
lhand -23.6227 -11.8775
lfingers 7.12502
lthumb 2.84171 18.0833
rfemur -15.8278 -68.3527 -90.6169
rtibia 151.228
rfoot -66.1507 81.3889
rtoes -18.4157
lfemur -97.4642 63.6704 -31.8296
ltibia 151.668
lfoot -32.7993 -25.6273
ltoes -25.0243
